/* XPM */
static char * abuledu_mulot_xpm[] = {
"32 32 228 2",
"  	c None",
". 	c #D8D8D8",
"+ 	c #CBCBCB",
"@ 	c #797979",
"# 	c #868686",
"$ 	c #878787",
"% 	c #838383",
"& 	c #B9B9B9",
"* 	c #EEEEEE",
"= 	c #F2F2F2",
"- 	c #E6E6E6",
"; 	c #DCDCDC",
"> 	c #F7F7F7",
", 	c #EAEAEA",
"' 	c #9E9E9E",
") 	c #CED2C9",
"! 	c #D5D8CF",
"~ 	c #B2B4AD",
"{ 	c #AEB0A9",
"] 	c #AAADA6",
"^ 	c #A3A59E",
"/ 	c #A8ABA4",
"( 	c #B4B6B0",
"_ 	c #FAFAFA",
": 	c #AEAEAE",
"< 	c #A4A4A4",
"[ 	c #E0E3D9",
"} 	c #E0E2D9",
"| 	c #D7DAD2",
"1 	c #C8CAC3",
"2 	c #9C9D98",
"3 	c #92948F",
"4 	c #9B9E98",
"5 	c #B2B5AF",
"6 	c #BFC2BB",
"7 	c #C5C8C0",
"8 	c #BDC0B9",
"9 	c #AEB1AA",
"0 	c #A7A9A3",
"a 	c #CCCDCB",
"b 	c #CDCDCD",
"c 	c #7D7D7D",
"d 	c #E2E5DA",
"e 	c #E2E6DC",
"f 	c #E4E7DF",
"g 	c #E6E8E1",
"h 	c #E3E5DF",
"i 	c #E0E2DB",
"j 	c #D2D4CE",
"k 	c #BBBEB8",
"l 	c #999B95",
"m 	c #A9ABA6",
"n 	c #C3C5BF",
"o 	c #A7AAA5",
"p 	c #90938E",
"q 	c #8B8D88",
"r 	c #A3A5A0",
"s 	c #A9ABA7",
"t 	c #80827E",
"u 	c #E3E7DC",
"v 	c #E5E7DD",
"w 	c #E7EAE2",
"x 	c #E9ECE5",
"y 	c #EBECE8",
"z 	c #EAEBE6",
"A 	c #E3E6DF",
"B 	c #DCDFD8",
"C 	c #D4D7CF",
"D 	c #CFD1CA",
"E 	c #C4C7C0",
"F 	c #A4A6A0",
"G 	c #848680",
"H 	c #90938D",
"I 	c #B9BBB5",
"J 	c #BCBEB8",
"K 	c #B5B7B2",
"L 	c #ABADA8",
"M 	c #969994",
"N 	c #E5E8DE",
"O 	c #E9ECE4",
"P 	c #EDEFE9",
"Q 	c #EDEFEA",
"R 	c #EBECE7",
"S 	c #E5E8E2",
"T 	c #DDDFD8",
"U 	c #CCCFC7",
"V 	c #C8CCC3",
"W 	c #C4C7BF",
"X 	c #BFC2BA",
"Y 	c #888A86",
"Z 	c #A6A7A3",
"` 	c #A0A39E",
" .	c #8D8F8B",
"..	c #7A7B78",
"+.	c #E8EAE3",
"@.	c #EEEFEA",
"#.	c #EFF0EC",
"$.	c #ECEDE8",
"%.	c #E3E5DE",
"&.	c #DBDDD6",
"*.	c #D0D3CB",
"=.	c #CACEC5",
"-.	c #C6C9C0",
";.	c #C4C7BE",
">.	c #C0C3BB",
",.	c #BCBFB8",
"'.	c #B6B9B2",
").	c #787B76",
"!.	c #878985",
"~.	c #7C7F7B",
"{.	c #6E6F6C",
"].	c #676966",
"^.	c #DEE1D5",
"/.	c #E0E3D8",
"(.	c #E7E9E2",
"_.	c #ECEEE8",
":.	c #EBEDE8",
"<.	c #E5E7E1",
"[.	c #D8DBD3",
"}.	c #D0D4CB",
"|.	c #C9CCC4",
"1.	c #C2C5BD",
"2.	c #BABDB6",
"3.	c #B5B8B1",
"4.	c #ACAFA9",
"5.	c #A3A6A0",
"6.	c #848682",
"7.	c #727470",
"8.	c #696B68",
"9.	c #636462",
"0.	c #545653",
"a.	c #D2D5CA",
"b.	c #D6DACF",
"c.	c #DCDFD6",
"d.	c #DFE1DA",
"e.	c #DDDED8",
"f.	c #D5D8D0",
"g.	c #CBCEC6",
"h.	c #C6CAC0",
"i.	c #C2C4BC",
"j.	c #BEC1B9",
"k.	c #BABDB5",
"l.	c #A5A8A2",
"m.	c #7F817D",
"n.	c #6B6D6A",
"o.	c #646662",
"p.	c #5A5B59",
"q.	c #3E3E3D",
"r.	c #B3B6AC",
"s.	c #BCBEB5",
"t.	c #C9CBC3",
"u.	c #CED1C8",
"v.	c #C8CBC3",
"w.	c #C3C5BC",
"x.	c #BEC0B8",
"y.	c #BABCB5",
"z.	c #B5B7B0",
"A.	c #ADB0A9",
"B.	c #969893",
"C.	c #737571",
"D.	c #686966",
"E.	c #5F615E",
"F.	c #575956",
"G.	c #232423",
"H.	c #0C0C0C",
"I.	c #95978F",
"J.	c #94978F",
"K.	c #979A92",
"L.	c #9EA098",
"M.	c #A4A7A0",
"N.	c #A5A8A0",
"O.	c #A2A59D",
"P.	c #A0A39C",
"Q.	c #9A9D96",
"R.	c #939690",
"S.	c #888A85",
"T.	c #7A7C78",
"U.	c #6E706C",
"V.	c #5E605D",
"W.	c #353634",
"X.	c #0A0B0A",
"Y.	c #7B7D77",
"Z.	c #787A74",
"`.	c #7F817B",
" +	c #858780",
".+	c #888A84",
"++	c #868983",
"@+	c #82857F",
"#+	c #7A7C77",
"$+	c #71736E",
"%+	c #696A66",
"&+	c #61635F",
"*+	c #5B5D5A",
"=+	c #565855",
"-+	c #535552",
";+	c #484947",
">+	c #222322",
",+	c #030303",
"'+	c #000000",
")+	c #666863",
"!+	c #60625D",
"~+	c #60615D",
"{+	c #60625E",
"]+	c #5C5E5A",
"^+	c #585956",
"/+	c #555653",
"(+	c #515350",
"_+	c #4F504D",
":+	c #414341",
"<+	c #262726",
"[+	c #010101",
"}+	c #5D5F5A",
"|+	c #62645F",
"1+	c #5F615C",
"2+	c #5D5E5A",
"3+	c #5B5C59",
"4+	c #595B57",
"5+	c #545552",
"6+	c #525350",
"7+	c #454644",
"8+	c #0F0F0F",
"9+	c #4B4C49",
"0+	c #4B4D49",
"a+	c #464744",
"b+	c #3C3C3A",
"c+	c #2D2E2C",
"d+	c #1B1B1A",
"e+	c #0C0C0B",
"                                                                ",
"                                                                ",
"                                                                ",
"                                                                ",
"                                                                ",
"                                                                ",
"                                                                ",
"                                        . + @ # $ % & *         ",
"                                    .                   =       ",
"                            - ;                                 ",
"                        > ,                             '       ",
"                            ) ! ~ { ] ^ / (       _ : <         ",
"                    [ } | 1 2 3 4 5 6 7 8 9 0 a b c             ",
"                d e f g h i j k l m n o p q r s t               ",
"            u v w x y z A B C D E F G H I J K L M               ",
"            N O P Q R S T C U V W X 0 Y Z K `  ...              ",
"          d +.@.#.$.%.&.*.=.-.;.>.,.'.] ).!.~.{.].              ",
"        ^./.(._.:.<.[.}.|.-.1.6 2.3.4.5.6.7.8.9.0.              ",
"        a.b.c.d.e.f.g.h.i.j.k.'.9 l.3 m.n.o.p.q.                ",
"        r.s.t.u.U v.w.x.y.z.A.0 B.6.C.D.E.F.G.H.                ",
"        I.J.K.L.M.N.O.P.Q.R.S.T.U.D.V.F.W.X.                    ",
"        Y.Z.`. +.+++@+#+$+%+&+*+=+-+;+>+,+'+                    ",
"          )+!+~+!+{+~+]+^+/+(+_+:+<+[+'+                        ",
"          }+|+1+2+3+4+/+5+6+7+<+8+,+                            ",
"            9+2+0+a+b+c+d+e+'+                                  ",
"                                                                ",
"                                                                ",
"                                                                ",
"                                                                ",
"                                                                ",
"                                                                ",
"                                                                "};
